<mxfile host="Electron" modified="2024-03-22T07:50:02.792Z" agent="Mozilla/5.0 (Macintosh; Intel Mac OS X 10_15_7) AppleWebKit/537.36 (KHTML, like Gecko) draw.io/23.1.5 Chrome/120.0.6099.109 Electron/28.1.0 Safari/537.36" etag="a4-PlHkJSv7iZnNeoGUi" version="23.1.5" type="device">
  <diagram name="第 1 页" id="Y7yKI3AvdICS7nBeYDCE">
    <mxGraphModel dx="1026" dy="743" grid="1" gridSize="10" guides="1" tooltips="1" connect="1" arrows="1" fold="1" page="1" pageScale="1" pageWidth="827" pageHeight="1169" math="0" shadow="0">
      <root>
        <mxCell id="0" />
        <mxCell id="1" parent="0" />
        <mxCell id="MxY7_JgTqVbb1RGog336-1" value="1" style="ellipse;whiteSpace=wrap;html=1;aspect=fixed;" vertex="1" parent="1">
          <mxGeometry x="120" y="200" width="40" height="40" as="geometry" />
        </mxCell>
        <mxCell id="MxY7_JgTqVbb1RGog336-2" value="4" style="ellipse;whiteSpace=wrap;html=1;aspect=fixed;" vertex="1" parent="1">
          <mxGeometry x="240" y="200" width="40" height="40" as="geometry" />
        </mxCell>
        <mxCell id="MxY7_JgTqVbb1RGog336-3" value="3" style="ellipse;whiteSpace=wrap;html=1;aspect=fixed;" vertex="1" parent="1">
          <mxGeometry x="240" y="320" width="40" height="40" as="geometry" />
        </mxCell>
        <mxCell id="MxY7_JgTqVbb1RGog336-4" value="2" style="ellipse;whiteSpace=wrap;html=1;aspect=fixed;" vertex="1" parent="1">
          <mxGeometry x="120" y="320" width="40" height="40" as="geometry" />
        </mxCell>
        <mxCell id="MxY7_JgTqVbb1RGog336-5" value="" style="endArrow=classic;startArrow=classic;html=1;rounded=0;exitX=1;exitY=0.5;exitDx=0;exitDy=0;entryX=0;entryY=0.5;entryDx=0;entryDy=0;" edge="1" parent="1" source="MxY7_JgTqVbb1RGog336-1" target="MxY7_JgTqVbb1RGog336-2">
          <mxGeometry width="50" height="50" relative="1" as="geometry">
            <mxPoint x="390" y="410" as="sourcePoint" />
            <mxPoint x="440" y="360" as="targetPoint" />
          </mxGeometry>
        </mxCell>
        <mxCell id="MxY7_JgTqVbb1RGog336-6" value="" style="endArrow=classic;startArrow=classic;html=1;rounded=0;exitX=0.5;exitY=1;exitDx=0;exitDy=0;entryX=0.5;entryY=0;entryDx=0;entryDy=0;" edge="1" parent="1" source="MxY7_JgTqVbb1RGog336-1" target="MxY7_JgTqVbb1RGog336-4">
          <mxGeometry width="50" height="50" relative="1" as="geometry">
            <mxPoint x="170" y="230" as="sourcePoint" />
            <mxPoint x="250" y="230" as="targetPoint" />
          </mxGeometry>
        </mxCell>
        <mxCell id="MxY7_JgTqVbb1RGog336-7" value="" style="endArrow=classic;html=1;rounded=0;exitX=1;exitY=1;exitDx=0;exitDy=0;entryX=0;entryY=0;entryDx=0;entryDy=0;" edge="1" parent="1" source="MxY7_JgTqVbb1RGog336-1" target="MxY7_JgTqVbb1RGog336-3">
          <mxGeometry width="50" height="50" relative="1" as="geometry">
            <mxPoint x="390" y="410" as="sourcePoint" />
            <mxPoint x="440" y="360" as="targetPoint" />
          </mxGeometry>
        </mxCell>
        <mxCell id="MxY7_JgTqVbb1RGog336-8" value="" style="endArrow=classic;html=1;rounded=0;exitX=0;exitY=0.5;exitDx=0;exitDy=0;entryX=1;entryY=0.5;entryDx=0;entryDy=0;" edge="1" parent="1" source="MxY7_JgTqVbb1RGog336-3" target="MxY7_JgTqVbb1RGog336-4">
          <mxGeometry width="50" height="50" relative="1" as="geometry">
            <mxPoint x="164" y="244" as="sourcePoint" />
            <mxPoint x="256" y="336" as="targetPoint" />
          </mxGeometry>
        </mxCell>
        <mxCell id="MxY7_JgTqVbb1RGog336-9" value="" style="endArrow=classic;html=1;rounded=0;exitX=0.5;exitY=1;exitDx=0;exitDy=0;entryX=0.5;entryY=0;entryDx=0;entryDy=0;" edge="1" parent="1" source="MxY7_JgTqVbb1RGog336-2" target="MxY7_JgTqVbb1RGog336-3">
          <mxGeometry width="50" height="50" relative="1" as="geometry">
            <mxPoint x="174" y="254" as="sourcePoint" />
            <mxPoint x="266" y="346" as="targetPoint" />
          </mxGeometry>
        </mxCell>
      </root>
    </mxGraphModel>
  </diagram>
</mxfile>
